HIERARCHY
ROOT Hips
{
  OFFSET 2.26061 22.2878 23.7974
  CHANNELS 6 Xposition Yposition Zposition Zrotation Xrotation Yrotation
  JOINT LeftUpLeg
  {
    OFFSET 8.64259 1.95398 -2.38835
    CHANNELS 3 Zrotation Xrotation Yrotation
    JOINT LeftLeg
    {
      OFFSET 43.7702 0 0
      CHANNELS 3 Zrotation Xrotation Yrotation
      JOINT LeftFoot
      {
        OFFSET 40.6238 0 0
        CHANNELS 3 Zrotation Xrotation Yrotation
        JOINT LeftToeBase
        {
          OFFSET 12.7242 0 0
          CHANNELS 3 Zrotation Xrotation Yrotation
          End Site
          {
            OFFSET 0 0 0
          }
        }
      }
    }
  }
  JOINT RightUpLeg
  {
    OFFSET -8.2249 1.95398 -2.59336
    CHANNELS 3 Zrotation Xrotation Yrotation
    JOINT RightLeg
    {
      OFFSET 43.5653 0 0
      CHANNELS 3 Zrotation Xrotation Yrotation
      JOINT RightFoot
      {
        OFFSET 40.6238 0 0
        CHANNELS 3 Zrotation Xrotation Yrotation
        JOINT RightToeBase
        {
          OFFSET 12.7242 0 0
          CHANNELS 3 Zrotation Xrotation Yrotation
          End Site
          {
            OFFSET 0 0 0
          }
        }
      }
    }
  }
  JOINT Spine
  {
    OFFSET 0.165834 0.87714 6.61349
    CHANNELS 3 Zrotation Xrotation Yrotation
    JOINT Spine1
    {
      OFFSET 7.38963 1.71661e-005 0
      CHANNELS 3 Zrotation Xrotation Yrotation
      JOINT Spine2
      {
        OFFSET 11.9445 1.14441e-005 0
        CHANNELS 3 Zrotation Xrotation Yrotation
        JOINT Spine3
        {
          OFFSET 14.7254 4.19617e-005 0
          CHANNELS 3 Zrotation Xrotation Yrotation
          JOINT Spine4
          {
            OFFSET 10.9679 0 0
            CHANNELS 3 Zrotation Xrotation Yrotation
            JOINT RightShoulder
            {
              OFFSET 2.46616 -1.6653 3.69651
              CHANNELS 3 Zrotation Xrotation Yrotation
              JOINT RightArm
              {
                OFFSET 13.0012 0 0
                CHANNELS 3 Zrotation Xrotation Yrotation
                JOINT RightForeArm
                {
                  OFFSET 28.7848 1.52588e-005 0
                  CHANNELS 3 Zrotation Xrotation Yrotation
                  JOINT RightHand
                  {
                    OFFSET 26.5688 1.52588e-005 0
                    CHANNELS 3 Zrotation Xrotation Yrotation
                    End Site
                    {
                      OFFSET 0 0 0
                    }
                  }
                }
              }
            }
            JOINT LeftShoulder
            {
              OFFSET 2.38034 -1.29275 -3.7523
              CHANNELS 3 Zrotation Xrotation Yrotation
              JOINT LeftArm
              {
                OFFSET 16.3182 6.10351e-005 0
                CHANNELS 3 Zrotation Xrotation Yrotation
                JOINT LeftForeArm
                {
                  OFFSET 27.0901 0 0
                  CHANNELS 3 Zrotation Xrotation Yrotation
                  JOINT LeftHand
                  {
                    OFFSET 24.5451 1.52588e-005 0
                    CHANNELS 3 Zrotation Xrotation Yrotation
                    End Site
                    {
                      OFFSET 0 0 0
                    }
                  }
                }
              }
            }
            JOINT Neck
            {
              OFFSET 5.0226 -0.0266342 0
              CHANNELS 3 Zrotation Xrotation Yrotation
              JOINT Head
              {
                OFFSET 6.69363 2.86102e-005 0
                CHANNELS 3 Zrotation Xrotation Yrotation
                End Site
                {
                  OFFSET 0 0 0
                }
              }
            }
          }
        }
      }
    }
  }
}
MOTION
Frames:	17
Frame Time:	0.0416667
-262.518 90.9943 -260.561 93.9824 -45.1469 92.9564 -165.395 -9.19459 87.5307 -23.4827 10.3975 -6.73649 66.697 12.0267 14.4681 47.8687 15.6021 4.12339 -176.485 38.2348 99.4329 -36.2901 -6.67914 -6.79862 73.9851 -4.30268 -2.00665 40.4381 0.269722 -8.33364 0.242892 7.61166 -89.3275 11.6445 0.798468 1.25717 -0.0267508 0.853037 1.22081 -22.5576 0.383767 1.43898 -2.54498 0.383767 1.43898 95.2518 -55.6666 -92.0077 24.9692 -5.39273 27.9577 -170.013 -14.0158 -142.001 -64.9329 -5.38794 17.3905 -98.0961 -48.8883 66.3863 -10.4372 2.81408 -9.98344 11.1165 -3.30596 -88.2928 21.1222 1.18982 1.7813 3.41331 0.536095 -3.0521 5.5353 0.949141 -0.150771 
-260.3 87.6476 -257.971 96.3669 -39.721 91.6142 -166.586 -9.72714 86.2772 -32.8696 11.3554 -5.91052 69.9915 15.9718 17.8437 49.7438 17.6576 6.56691 -176.446 35.1954 94.6572 -24.8769 -8.70115 -6.75008 69.6657 -3.89049 -1.93514 42.6833 0.269829 -7.40996 -0.221991 7.90688 -89.1907 11.0566 -0.0666166 1.61583 -0.615416 0.00456467 1.61719 -23.1425 -0.549068 1.52116 -3.1299 -0.549074 1.52116 96.6645 -56.534 -89.8779 25.1024 -5.15489 22.026 -168.841 -16.4109 -144.87 -66.3847 -4.95308 16.5549 -101.034 -50.6658 62.7657 -11.5727 6.30085 -9.76311 8.45305 -1.2948 -77.7458 19.3202 0.963942 1.13659 5.69569 -0.46447 -2.3901 4.43146 -0.0992149 -0.382955 
-255.642 86.9049 -253.578 94.8692 -30.6389 89.6853 -169.439 -7.13721 88.732 -42.3136 19.6533 -1.84132 66.4172 9.06583 11.4674 54.3374 22.2288 8.74551 -179.318 32.6603 90.8746 -20.3638 -6.42744 -4.9013 67.6904 -3.97089 -2.11642 41.6946 0.26155 -8.43932 -1.26738 7.80797 -89.4001 11.2748 -2.24263 1.4193 -0.395218 -2.17799 1.51664 -22.9433 -2.5655 0.679412 -2.93069 -2.56548 0.679412 96.6893 -57.9199 -89.7132 23.2486 -6.81855 16.4787 -161.395 -25.5125 -144.19 -77.9953 0.40825 5.90426 -102.268 -51.3797 61.2849 -13.9776 8.89502 -9.07295 13.0816 3.93042 -64.399 14.5069 0.858608 2.0929 7.8473 -0.211343 -0.768637 2.82336 -0.102765 -0.555434 
-247.523 87.1285 -247.667 91.3908 -27.4043 90.7293 -171.053 -3.65171 93.95 -47.4143 23.202 1.68479 50.4437 -5.34726 -5.02053 57.1581 26.6527 14.4153 179.565 36.121 92.5027 -30.7957 -6.4526 -3.49038 62.3482 -1.71792 -0.869562 44.847 -0.0410258 -11.3561 -1.7538 7.49489 -90.0444 11.8975 -3.50822 0.2928 0.231302 -3.49192 0.4471 -22.3413 -3.43382 -0.776393 -2.3286 -3.43382 -0.776393 96.6057 -58.4178 -89.7845 20.745 -9.73147 9.82851 -128.329 -48.1615 -125.431 -83.4909 23.5915 -20.3816 -102.386 -51.6015 61.2043 -15.1925 12.7814 -8.61678 10.4609 12.3446 -46.3889 16.8216 1.34986 4.03095 9.4459 0.907311 0.555968 1.56221 0.825401 0.862477 
-239.918 86.9371 -242.247 90.3382 -30.7979 91.8279 -174.279 3.64595 94.3426 -59.6696 23.5968 2.88286 33.3987 -15.0694 -11.2161 27.9695 -1.99364 11.0587 179.585 38.054 95.8739 -42.0856 -4.85905 -3.06849 62.9982 -1.55772 -0.804953 37.8791 0.388439 -4.3647 -1.46107 7.58669 -90.4392 11.6962 -3.11205 -0.54935 0.0289005 -3.1332 -0.411726 -22.5307 -2.80299 -1.45992 -2.51806 -2.80299 -1.45992 95.9419 -57.9958 -90.7602 19.4727 -12.4246 2.12501 -29.5033 -41.3032 -55.3223 -42.5733 24.048 -56.3172 -105.328 -52.3824 57.4143 -15.1408 13.0575 -6.0438 3.49123 14.7109 -30.4347 15.1974 1.361 5.00211 12.5822 2.0371 2.84328 0.816436 1.3622 0.0228896 
-233.669 87.0096 -237.662 93.1632 -35.301 94.0782 -174.344 16.109 94.4219 -79.5463 16.1962 1.96017 34.8458 -13.1282 -9.3839 26.4278 -3.67462 12.2426 -178.442 34.0433 99.0522 -48.6558 -4.71369 -4.24763 69.686 -4.25073 -2.21872 29.6216 0.192767 -2.5325 -0.878243 7.95424 -90.5469 10.9572 -2.00154 -0.897379 -0.712482 -2.03912 -0.808399 -23.2537 -1.63933 -1.4575 -3.24103 -1.63934 -1.45751 93.3953 -55.8791 -94.6577 19.7567 -13.0816 -5.12682 -1.57318 -18.0404 -51.442 -23.377 2.40754 -21.3919 -106.668 -54.2082 56.3551 -16.1448 12.0999 -1.00466 1.8211 17.2552 -23.2351 12.6966 1.51469 7.64007 13.7239 2.40373 4.0876 1.01612 1.40138 -0.0353047 
-227.626 89.2596 -232.476 92.0755 -38.1266 92.6395 -173.039 32.5217 95.1174 -90.6318 15.484 1.37121 34.5698 -13.3878 -7.336 29.8176 -0.168488 10.6158 -177.645 27.9636 99.5066 -46.279 -5.49191 -4.9703 72.7792 -5.89471 -2.92773 28.5524 0.0663241 -1.08693 -0.317507 7.95748 -90.4836 10.953 -0.855872 -0.88204 -0.717916 -0.893863 -0.843531 -23.2521 -0.551238 -1.09848 -3.23943 -0.55123 -1.09848 93.0572 -53.0908 -95.5974 18.7112 -13.7966 -11.8178 -2.97631 -17.2353 -63.4012 -22.0402 0.120303 -5.87092 -106.224 -54.3464 57.0135 -18.3113 12.3314 5.68033 0.829305 16.2381 -21.929 15.3363 2.03371 9.22357 14.1556 1.41583 4.27492 1.06494 0.402269 0.467364 
-221.766 93.0978 -226.874 90.9881 -38.8489 87.5886 -169.336 44.5898 90.263 -91.553 13.9959 0.882315 38.2219 -11.5878 -6.23333 32.7543 2.61286 10.7858 -179.532 19.5031 95.7099 -39.3703 -9.73184 -5.87973 70.0673 -4.943 -2.58792 31.5055 0.211873 -2.07644 -0.00205262 7.75157 -89.944 11.3725 0.0219696 0.106884 -0.298428 0.0266452 0.105806 -22.8337 -0.0111802 0.108544 -2.82106 -0.0111752 0.108542 93.73 -49.9391 -95.0946 20.2391 -13.1167 -14.4577 -7.28117 -10.6303 -75.6585 -20.4398 -0.0801489 -4.56795 -103.731 -53.3668 60.0221 -21.6332 13.4926 13.0616 1.96258 17.7626 -23.7716 12.3115 1.7008 9.48015 11.0921 -0.112482 4.65173 1.67229 -1.10178 -0.436226 
-215.696 98.7259 -221.064 93.2879 -41.8175 84.3048 -163.835 46.8595 85.2171 -82.9965 16.603 -1.08074 41.9704 -10.3306 -3.89197 32.4927 2.52923 7.81653 179.197 10.1943 91.1203 -31.9336 -14.3153 -7.39302 56.6684 -0.381907 -0.0878809 33.4951 0.27397 -1.6483 0.533807 7.77193 -89.3106 11.3213 1.38356 1.2347 -0.349459 1.43659 1.1726 -22.8831 0.948567 1.59339 -2.87045 0.948593 1.59339 94.9472 -47.5358 -93.5605 21.655 -14.0172 -13.7738 -6.85747 -3.93818 -84.2947 -19.8414 -0.239062 -3.73814 -101.095 -51.6242 63.039 -25.4914 14.1245 18.991 2.66525 20.0903 -23.9403 9.7378 1.25373 8.25165 6.40971 -1.8321 4.67835 2.87816 -2.71988 -2.2241 
-208.989 103.6 -216.468 93.9123 -44.1099 84.0058 -164.048 47.1413 84.1207 -70.8561 17.3422 -2.81962 45.0621 -9.31714 -4.5099 34.1257 3.88235 11.9324 177.342 7.64404 88.9088 -29.2224 -15.1988 -6.30909 39.3674 5.11907 5.11895 29.3626 0.198973 -2.98153 0.756316 7.70363 -89.1737 11.453 1.89085 1.45438 -0.217287 1.95302 1.36973 -22.7524 1.36641 1.95534 -2.73977 1.36642 1.95534 94.505 -45.8981 -94.5281 22.0474 -13.5625 -12.361 -11.6662 -4.03613 -90.2509 -19.1994 -0.455044 -2.36634 -99.4149 -51.5075 65.3875 -28.26 13.2923 25.057 3.12813 19.1948 -24.6698 8.87985 1.13337 8.00068 2.78605 -1.83551 6.62779 4.53793 -3.0309 -4.18409 
-202.36 106.424 -211.862 93.422 -46.7049 84.351 -165.326 46.2521 85.1889 -58.9312 17.9465 -4.38194 49.0856 -7.3182 -2.1828 36.8804 6.55164 12.3141 177.27 7.23257 89.202 -26.2466 -14.5145 -5.53453 36.83 5.61062 5.91627 26.3159 0.448654 -6.1795 0.986948 7.65313 -89.2472 11.555 2.31575 1.26114 -0.114399 2.36901 1.15796 -22.656 1.82972 1.89887 -2.64331 1.82972 1.89886 94.3746 -44.4516 -94.9851 20.636 -14.3669 -11.2398 -13.2332 -1.3912 -96.1884 -17.1307 -0.332615 -3.04639 -99.3347 -50.7288 65.2273 -32.4933 12.0055 29.7099 3.65343 18.9973 -24.8208 7.88805 0.946238 7.16469 2.43845 -1.73961 7.46562 4.14373 -3.03634 -4.48965 
-195.869 107.653 -206.941 93.4864 -48.7212 84.3096 -166.918 42.8567 85.9941 -45.705 16.3742 -5.40123 51.2379 -6.011 -1.35987 36.378 6.05913 11.7475 176.016 4.91496 89.4487 -17.32 -15.1565 -5.13125 42.5159 4.45956 4.27933 25.9637 0.501976 -7.21681 1.01111 7.70856 -89.1532 11.44 2.40726 1.44391 -0.229394 2.4685 1.33652 -22.7698 1.8621 2.10065 -2.75718 1.86212 2.10065 93.8688 -44.0752 -95.8915 17.8747 -16.3854 -11.8661 -11.9713 0.342778 -99.7655 -16.6912 -0.0668099 -4.75679 -97.2605 -48.2659 67.4107 -37.6681 11.4299 32.2803 3.76402 19.2579 -24.7535 6.14801 0.698187 6.193 3.60896 -0.994759 6.74245 3.08993 -2.21615 -4.25473 
-189.531 106.391 -203.3 97.3039 -51.0515 90.27 -170.108 39.589 89.5155 -36.3644 15.627 -4.0435 53.8754 -4.31096 -0.195642 36.5584 6.23553 12.0003 175.577 2.28866 91.9571 -11.0791 -12.9967 -3.0075 43.5161 4.117 3.87344 29.9931 0.363859 -5.63928 1.13094 7.91248 -89.4762 11.0413 2.49419 0.80266 -0.627445 2.52709 0.692043 -23.1756 2.13763 1.51541 -3.16296 2.13763 1.5154 93.4972 -44.6159 -96.4057 15.1866 -16.8233 -11.839 -11.8919 0.638376 -101.479 -15.9403 0.15039 -6.35971 -96.8363 -47.0603 67.6342 -41.51 10.6346 35.1191 4.05054 18.5213 -25.5078 1.92601 0.260258 4.95681 3.06106 -0.146796 6.85739 3.0122 -1.3348 -3.80765 
-182.998 103.356 -198.416 96.6071 -52.8488 89.1568 -171.757 37.8408 89.5428 -27.6631 13.5178 -3.39154 57.3663 -2.02208 -1.09223 38.1169 7.77274 12.9189 174.861 4.10951 91.5176 -12.4012 -7.48303 -1.87226 45.4311 3.17536 2.9318 34.2881 0.346485 -4.37246 1.10603 7.92429 -89.3591 11.0153 2.49882 1.03542 -0.653566 2.54196 0.924377 -23.1997 2.07211 1.73872 -3.18708 2.07211 1.73872 93.9039 -45.4212 -95.5904 13.5137 -17.2 -12.7135 -11.9387 1.25905 -102.89 -14.5588 0.115144 -6.23557 -96.7594 -47.0189 67.7366 -42.9431 11.0882 36.4811 4.14422 17.7063 -26.9727 -2.78409 -0.118186 2.46231 3.67368 0.546 6.48542 2.79505 -0.583955 -3.09287 
-176.876 98.3121 -193.355 96.392 -54.0082 87.1637 -172.72 37.3218 88.8205 -22.0644 13.5854 -3.06994 59.1303 -0.79483 -0.0827417 38.5999 8.30669 14.1745 174.528 8.05643 90.0717 -27.1275 -3.35507 -2.16985 58.7249 -1.17562 -0.41525 35.0182 0.305707 -0.362979 1.03049 7.96313 -89.1045 10.9294 2.46592 1.54944 -0.739964 2.53173 1.43937 -23.2798 1.88635 2.2189 -3.26718 1.88635 2.2189 93.9536 -46.918 -95.2495 12.4234 -16.9129 -12.2805 -12.9079 0.971456 -103.075 -17.8075 0.278422 -6.9937 -97.4933 -48.0853 67.0051 -42.3389 12.4759 37.5232 3.90392 16.7001 -28.907 -6.90883 -0.3083 1.1787 3.6748 0.964069 6.08159 3.62611 -0.119828 -2.83795 
-170.707 92.8785 -189.186 98.7624 -56.0365 89.7689 -172.907 36.648 90.0963 -18.5063 10.6026 -2.5382 60.1156 0.299038 0.390195 39.8061 9.46827 13.6087 176.52 7.05382 91.2217 -41.4116 0.614697 -4.57448 78.2534 -8.54009 -3.77783 38.3566 0.436236 -2.30288 1.07854 8.24642 -89.1352 10.3629 2.54452 1.49485 -1.30627 2.60786 1.38137 -23.8477 1.97771 2.19049 -3.83511 1.97773 2.1905 93.3061 -48.6819 -95.9695 11.1819 -17.6199 -12.8405 -11.8707 1.60133 -101.419 -16.6974 0.256026 -6.99745 -97.9099 -52.423 67.835 -36.961 13.2002 33.9044 3.26799 17.5184 -26.6489 -6.00452 -0.283707 0.27171 7.0657 1.75962 6.56265 2.36762 0.422994 -2.88993 
-163.25 90.3417 -184.019 98.2363 -56.9167 92.3961 -173.948 34.2877 92.5069 -11.9154 12.5778 -1.24043 58.7766 0.41246 1.20301 41.2438 11.2156 17.0589 176.522 0.6756 92.7114 -40.8488 2.89249 -4.88391 85.9769 -11.4502 -4.2707 39.4997 0.394564 -4.80757 1.15674 8.18443 -89.4068 10.495 2.57639 0.949891 -1.17371 2.61567 0.835508 -23.7216 2.1718 1.68052 -3.709 2.17178 1.6805 91.381 -50.7468 -98.5507 13.3107 -17.7944 -8.70248 -11.0114 -3.04059 -95.6837 -19.7805 0.181074 -6.1609 -97.2439 -55.6616 69.7794 -31.9254 10.2548 27.1459 3.20961 17.5127 -22.2721 6.52414 0.767734 6.62882 8.00132 2.40993 6.86246 1.47694 0.980207 -2.84602 
